<svg width="16" height="16" viewBox="0 0 16 16" fill="none" xmlns="http://www.w3.org/2000/svg">
<path d="M13.0907 3.34855C12.1271 2.90505 11.1099 2.59042 10.0649 2.41269C9.92187 2.66966 9.79253 2.93405 9.67727 3.20475C8.5642 3.03613 7.43227 3.03613 6.31921 3.20475C6.20391 2.93407 6.07453 2.66969 5.9316 2.41269C4.88598 2.59192 3.86803 2.9073 2.90345 3.35087C0.988505 6.19902 0.469392 8.97647 0.728945 11.7144C1.85039 12.5473 3.1056 13.1809 4.44002 13.5873C4.74049 13.1811 5.00637 12.7501 5.23484 12.2989C4.8009 12.136 4.38207 11.9349 3.9832 11.6982C4.08818 11.6217 4.19085 11.5428 4.29005 11.4663C5.45067 12.0149 6.7174 12.2994 8 12.2994C9.28253 12.2994 10.5493 12.0149 11.7099 11.4663C11.8103 11.5486 11.9129 11.6275 12.0167 11.6982C11.6171 11.9353 11.1975 12.1367 10.7628 12.3001C10.991 12.751 11.2569 13.1816 11.5576 13.5873C12.8932 13.1825 14.1493 12.5493 15.271 11.7156C15.5755 8.5404 14.7507 5.78849 13.0907 3.34855ZM5.56361 10.0306C4.84031 10.0306 4.24276 9.37073 4.24276 8.55893C4.24276 7.7472 4.81955 7.08153 5.5613 7.08153C6.30305 7.08153 6.896 7.7472 6.88333 8.55893C6.8706 9.37073 6.30075 10.0306 5.56361 10.0306ZM10.4363 10.0306C9.71187 10.0306 9.11667 9.37073 9.11667 8.55893C9.11667 7.7472 9.6934 7.08153 10.4363 7.08153C11.1793 7.08153 11.7676 7.7472 11.7549 8.55893C11.7422 9.37073 11.1735 10.0306 10.4363 10.0306Z" fill="#909090"/>
</svg>
