<svg width="16" height="16" viewBox="0 0 16 16" fill="none" xmlns="http://www.w3.org/2000/svg">
<path fill-rule="evenodd" clip-rule="evenodd" d="M4.5 1.33333C3.48748 1.33333 2.66666 2.15415 2.66666 3.16667V12.8333C2.66666 13.8459 3.48748 14.6667 4.5 14.6667H11.5C12.5125 14.6667 13.3333 13.8459 13.3333 12.8333V3.16667C13.3333 2.15415 12.5125 1.33333 11.5 1.33333H4.5ZM3.66666 12.6667V12.8333C3.66666 13.2936 4.03976 13.6667 4.5 13.6667H11.5C11.9603 13.6667 12.3333 13.2936 12.3333 12.8333V11.4667C12.0833 11.5946 11.8001 11.6667 11.5 11.6667H4.66666C4.11438 11.6667 3.66666 12.1144 3.66666 12.6667ZM5.83333 4.16667C5.55719 4.16667 5.33333 4.39053 5.33333 4.66667C5.33333 4.94281 5.55719 5.16667 5.83333 5.16667H10.1667C10.4428 5.16667 10.6667 4.94281 10.6667 4.66667C10.6667 4.39053 10.4428 4.16667 10.1667 4.16667H5.83333ZM5.33333 7.33333C5.33333 7.0572 5.55719 6.83333 5.83333 6.83333H8.16666C8.4428 6.83333 8.66666 7.0572 8.66666 7.33333C8.66666 7.60947 8.4428 7.83333 8.16666 7.83333H5.83333C5.55719 7.83333 5.33333 7.60947 5.33333 7.33333Z" fill="white"/>
</svg>
