<svg width="16" height="16" viewBox="0 0 16 16" fill="none" xmlns="http://www.w3.org/2000/svg">
<path d="M3 8C3 5.23857 5.23857 3 8 3C10.7614 3 13 5.23857 13 8V8.66667H12.1667C11.1541 8.66667 10.3333 9.48747 10.3333 10.5V12.1667C10.3333 13.1792 11.1541 14 12.1667 14C13.1792 14 14 13.1792 14 12.1667V8C14 4.85467 11.5797 2.27461 8.5 2.02054V2H8C4.68629 2 2 4.68629 2 8V12.1667C2 13.1792 2.82081 14 3.83333 14C4.84585 14 5.66667 13.1792 5.66667 12.1667V10.5C5.66667 9.48747 4.84585 8.66667 3.83333 8.66667H3V8Z" fill="white"/>
</svg>
