<svg width="16" height="16" viewBox="0 0 16 16" fill="none" xmlns="http://www.w3.org/2000/svg">
<path d="M1.05399 7.1196C5.17076 5.33217 7.91527 4.15369 9.28747 3.58435C13.2101 1.95857 14.0242 1.67621 14.5559 1.66676C14.6728 1.66478 14.9331 1.69359 15.103 1.83059C15.2442 1.94604 15.2839 2.10217 15.3038 2.21169C15.3215 2.3212 15.3457 2.57079 15.3259 2.76563C15.1141 4.99109 14.1941 10.3915 13.7264 12.8842C13.5301 13.9389 13.1395 14.2925 12.7623 14.3271C11.9415 14.4023 11.3194 13.7869 10.5251 13.2681C9.28307 12.4561 8.58153 11.9507 7.37473 11.1584C5.98042 10.2427 6.88493 9.73934 7.6792 8.91687C7.88653 8.7016 11.5003 5.42607 11.5687 5.12897C11.5775 5.09181 11.5864 4.95327 11.5025 4.88026C11.4209 4.80703 11.2995 4.8321 11.2113 4.85189C11.0855 4.88004 9.10213 6.18804 5.2545 8.77567C4.69192 9.1614 4.1823 9.3494 3.72341 9.33953C3.22039 9.32873 2.24973 9.0554 1.5283 8.82187C0.645817 8.53533 -0.0579959 8.3838 0.00377776 7.89713C0.0346646 7.6438 0.385507 7.38453 1.05399 7.1196Z" fill="#909090"/>
</svg>
