<svg width="89" height="24" viewBox="0 0 89 24" fill="none" xmlns="http://www.w3.org/2000/svg">
<path fill-rule="evenodd" clip-rule="evenodd" d="M3.75 4C2.7835 4 2 4.7835 2 5.75V18.25C2 19.2165 2.7835 20 3.75 20H20.25C21.2165 20 22 19.2165 22 18.25V5.75C22 4.7835 21.2165 4 20.25 4H3.75ZM4.5 7.5C4.5 6.94772 4.94772 6.5 5.5 6.5H18.5C19.0523 6.5 19.5 6.94772 19.5 7.5V10H16.5591C16.2067 10 15.8625 10.1064 15.5716 10.3053L14.2703 11.1947C13.9794 11.3936 13.6352 11.5 13.2828 11.5H10.7172C10.3648 11.5 10.0206 11.3936 9.72969 11.1947L8.42843 10.3053C8.13749 10.1064 7.79329 10 7.44089 10H4.5V7.5Z" fill="white"/>
<path d="M37.292 17.056H33.372V6.71H36.872C39.154 6.71 40.316 7.704 40.316 9.496V9.692C40.316 10.714 39.91 11.358 39.224 11.75C40.148 12.114 40.736 12.828 40.736 14.032V14.228C40.736 16.034 39.574 17.056 37.292 17.056ZM37.082 8.11H35.038V11.176H37.082C38.132 11.176 38.622 10.56 38.622 9.65C38.622 8.726 38.132 8.11 37.082 8.11ZM37.46 12.52H35.038V15.656H37.46C38.482 15.656 39.042 15.054 39.042 14.088C39.042 13.094 38.496 12.52 37.46 12.52ZM44.8743 17.196C43.1943 17.196 42.1443 16.3 42.1443 14.746C42.1443 13.136 43.3483 12.338 45.3363 12.338H47.0583V12.198C47.0583 11.26 46.5683 10.77 45.6163 10.77C44.8323 10.77 43.6983 10.826 43.0123 10.868V9.454C43.6283 9.398 44.5103 9.356 45.2243 9.356C47.5343 9.356 48.6263 10.182 48.6263 12.282V17H47.3243V15.558C46.9883 16.636 46.1623 17.196 44.8743 17.196ZM45.2943 15.964C46.1623 15.964 47.0023 15.558 47.0583 14.2V13.416H45.2943C44.3143 13.416 43.7683 13.948 43.7683 14.704C43.7683 15.46 44.3143 15.964 45.2943 15.964ZM52.6451 17H50.9931V8.04H49.9991V6.78H52.6451V17ZM57.1517 17.196C55.4717 17.196 54.4217 16.3 54.4217 14.746C54.4217 13.136 55.6257 12.338 57.6137 12.338H59.3357V12.198C59.3357 11.26 58.8457 10.77 57.8937 10.77C57.1097 10.77 55.9757 10.826 55.2897 10.868V9.454C55.9057 9.398 56.7877 9.356 57.5017 9.356C59.8117 9.356 60.9037 10.182 60.9037 12.282V17H59.6017V15.558C59.2657 16.636 58.4397 17.196 57.1517 17.196ZM57.5717 15.964C58.4397 15.964 59.2797 15.558 59.3357 14.2V13.416H57.5717C56.5917 13.416 56.0457 13.948 56.0457 14.704C56.0457 15.46 56.5917 15.964 57.5717 15.964ZM64.8244 17H63.1864V9.454H64.4884V11.26C64.8244 9.93 65.6784 9.23 67.0784 9.23H67.1484C68.9964 9.23 69.9204 10.434 69.9204 12.688V17H68.2824V12.464C68.2824 11.414 67.6384 10.714 66.6024 10.714C65.5384 10.714 64.8244 11.442 64.8244 12.534V17ZM75.4722 17.252C72.8822 17.252 71.6642 15.264 71.6642 13.36V13.108C71.6642 11.148 72.9382 9.202 75.4582 9.202C77.3902 9.202 78.8182 10.364 78.9302 12.142H77.3482C77.2222 11.288 76.5642 10.644 75.4582 10.644C74.0022 10.644 73.3022 11.736 73.3022 13.234C73.3022 14.69 73.9882 15.81 75.4722 15.81C76.6062 15.81 77.3202 15.166 77.4182 14.27H79.0142C78.9162 16.076 77.4182 17.252 75.4722 17.252ZM84.0038 17.252C81.3718 17.252 80.1818 15.278 80.1818 13.36V13.094C80.1818 11.134 81.4138 9.202 83.9198 9.202C86.3558 9.202 87.5738 11.008 87.5738 12.94V13.598H81.7498C81.8618 14.928 82.5478 15.866 84.0038 15.866C85.0538 15.866 85.7538 15.348 85.9078 14.718H87.4338C87.1118 16.286 85.8098 17.252 84.0038 17.252ZM83.9198 10.588C82.6878 10.588 81.9878 11.33 81.7918 12.492H85.9778C85.8238 11.302 85.1378 10.588 83.9198 10.588Z" fill="white"/>
</svg>
