<svg width="20" height="20" viewBox="0 0 20 20" fill="none" xmlns="http://www.w3.org/2000/svg">
<path fill-rule="evenodd" clip-rule="evenodd" d="M20 10C20 15.5228 15.5228 20 10 20C4.47715 20 0 15.5228 0 10C0 4.47715 4.47715 0 10 0C15.5228 0 20 4.47715 20 10ZM13.7803 11.5303L10.5303 14.7803C10.2374 15.0732 9.76256 15.0732 9.46967 14.7803L6.21967 11.5303C5.92678 11.2374 5.92678 10.7626 6.21967 10.4697C6.51256 10.1768 6.98744 10.1768 7.28033 10.4697L9.25 12.4393V5.75C9.25 5.33579 9.58579 5 10 5C10.4142 5 10.75 5.33579 10.75 5.75V12.4393L12.7197 10.4697C13.0126 10.1768 13.4874 10.1768 13.7803 10.4697C14.0732 10.7626 14.0732 11.2374 13.7803 11.5303Z" fill="black"/>
</svg>
