<svg width="18" height="20" viewBox="0 0 18 20" fill="none" xmlns="http://www.w3.org/2000/svg">
<path d="M13 15.25C13 17.4591 11.2091 19.25 9 19.25C6.79086 19.25 5 17.4591 5 15.25M15.4965 6.90897L15.6813 10.5684C15.6957 10.8529 15.7706 11.131 15.9012 11.3841L17.1381 13.7831C17.2116 13.9256 17.25 14.0837 17.25 14.2441C17.25 14.7996 16.7996 15.25 16.2441 15.25H1.75593C1.20037 15.25 0.75 14.7996 0.75 14.2441C0.75 14.0837 0.788352 13.9256 0.861856 13.7831L2.09883 11.3841C2.22935 11.131 2.30431 10.8529 2.31867 10.5684L2.50351 6.90897C2.6766 3.45882 5.53386 0.75 9 0.75C12.4661 0.75 15.3234 3.45882 15.4965 6.90897Z" stroke="white" stroke-width="1.5" stroke-linecap="round" stroke-linejoin="round"/>
</svg>
