<svg width="96" height="24" viewBox="0 0 96 24" fill="none" xmlns="http://www.w3.org/2000/svg">
<path d="M14.2586 2.18337C14.4229 2.04092 14.6409 1.97677 14.8562 2.00756C18.5469 2.53548 21.4645 5.45306 21.9924 9.14381C22.0232 9.35906 21.9591 9.57708 21.8166 9.74136C21.6742 9.90564 21.4674 10 21.25 10H14.75C14.3358 10 14 9.66422 14 9.25001V2.75C14 2.53256 14.0944 2.32582 14.2586 2.18337Z" fill="white"/>
<path d="M2 13C2 8.02944 6.02944 4 11 4C11.0926 4 11.1849 4.0014 11.2768 4.00418C11.682 4.01644 12.0041 4.34846 12.0041 4.75384V12.0002H19.2463C19.6518 12.0002 19.9839 12.3226 19.996 12.7279C19.9986 12.8183 20 12.909 20 13C20 17.9706 15.9706 22 11 22C6.02944 22 2 17.9706 2 13Z" fill="white"/>
<path d="M35.052 17H33.372V6.71H36.704C39.238 6.71 40.638 8.012 40.638 10.07V10.294C40.638 12.352 39.238 13.654 36.704 13.654H35.052V17ZM36.9 8.18H35.052V12.184H36.9C38.23 12.184 38.93 11.344 38.93 10.182C38.93 9.02 38.23 8.18 36.9 8.18ZM45.7148 17.252C43.0828 17.252 41.6408 15.334 41.6408 13.374V13.094C41.6408 11.092 43.1528 9.202 45.7148 9.202C48.2768 9.202 49.7888 11.092 49.7888 13.094V13.374C49.7888 15.334 48.3468 17.252 45.7148 17.252ZM45.7148 15.824C47.2688 15.824 48.1508 14.704 48.1508 13.234C48.1508 11.736 47.2268 10.63 45.7148 10.63C44.2028 10.63 43.2788 11.736 43.2788 13.234C43.2788 14.704 44.1608 15.824 45.7148 15.824ZM53.299 17H51.661V9.454H52.963V11.75C53.187 10.154 54.125 9.37 55.735 9.37H56.001V10.812H55.497C54.083 10.812 53.299 11.596 53.299 12.996V17ZM61.8363 17.084H60.7023C58.8263 17.084 57.8183 16.412 57.8183 14.298V10.672H56.5723V9.454H57.8183V7.256H59.3723V9.454H61.8363V10.672H59.3723V14.438C59.3723 15.208 59.8063 15.656 60.5763 15.656H61.8363V17.084ZM65.3463 17H63.7923V10.784H62.7983V9.566H63.7923V9.188C63.7923 7.48 64.7303 6.696 66.5083 6.696H67.4603V7.998H66.3263C65.6963 7.998 65.3463 8.376 65.3463 8.992V9.566H67.5863V10.784H65.3463V17ZM72.4159 17.252C69.7839 17.252 68.3419 15.334 68.3419 13.374V13.094C68.3419 11.092 69.8539 9.202 72.4159 9.202C74.9779 9.202 76.4899 11.092 76.4899 13.094V13.374C76.4899 15.334 75.0479 17.252 72.4159 17.252ZM72.4159 15.824C73.9699 15.824 74.8519 14.704 74.8519 13.234C74.8519 11.736 73.9279 10.63 72.4159 10.63C70.9039 10.63 69.9799 11.736 69.9799 13.234C69.9799 14.704 70.8619 15.824 72.4159 15.824ZM80.0982 17H78.4462V8.04H77.4522V6.78H80.0982V17ZM83.4008 8.404C82.7288 8.404 82.4068 8.012 82.4068 7.452C82.4068 6.906 82.7288 6.5 83.4008 6.5C84.0868 6.5 84.4088 6.906 84.4088 7.452C84.4088 8.012 84.0868 8.404 83.4008 8.404ZM84.5068 17H82.8688V10.714H81.7628V9.454H84.5068V17ZM90.4901 17.252C87.8581 17.252 86.4161 15.334 86.4161 13.374V13.094C86.4161 11.092 87.9281 9.202 90.4901 9.202C93.0521 9.202 94.5641 11.092 94.5641 13.094V13.374C94.5641 15.334 93.1221 17.252 90.4901 17.252ZM90.4901 15.824C92.0441 15.824 92.9261 14.704 92.9261 13.234C92.9261 11.736 92.0021 10.63 90.4901 10.63C88.9781 10.63 88.0541 11.736 88.0541 13.234C88.0541 14.704 88.9361 15.824 90.4901 15.824Z" fill="white"/>
</svg>
