<svg width="24" height="24" viewBox="0 0 24 24" fill="none" xmlns="http://www.w3.org/2000/svg">
<path d="M16 4.50098C16 3.67255 16.6716 3.00098 17.5 3.00098H19.5C20.3284 3.00098 21 3.67255 21 4.50098V19.501C21 20.3294 20.3284 21.001 19.5 21.001H17.5C16.6716 21.001 16 20.3294 16 19.501V4.50098Z" fill="white"/>
<path d="M11 8.50098C10.1716 8.50098 9.5 9.17255 9.5 10.001V19.501C9.5 20.3294 10.1716 21.001 11 21.001H13C13.8284 21.001 14.5 20.3294 14.5 19.501V10.001C14.5 9.17255 13.8284 8.50098 13 8.50098H11Z" fill="white"/>
<path d="M4.5 14.001C3.67157 14.001 3 14.6725 3 15.501V19.501C3 20.3294 3.67157 21.001 4.5 21.001H6.5C7.32843 21.001 8 20.3294 8 19.501V15.501C8 14.6725 7.32843 14.001 6.5 14.001H4.5Z" fill="white"/>
</svg>
