<svg width="24" height="24" viewBox="0 0 24 24" fill="none" xmlns="http://www.w3.org/2000/svg">
<path d="M12 2C9.51472 2 7.5 4.01472 7.5 6.5C7.5 8.98528 9.51472 11 12 11C14.4853 11 16.5 8.98528 16.5 6.5C16.5 4.01472 14.4853 2 12 2Z" fill="white"/>
<path d="M16.5081 13.8263C16.1908 14.2141 16.0005 14.7098 16.0005 15.25V16H15.2505C14.0078 16 13.0005 17.0074 13.0005 18.25C13.0005 19.4926 14.0078 20.5 15.2505 20.5H16.0005V21H5.59881C4.60008 21 3.69057 20.1119 3.9402 19.0012C4.7686 15.3152 8.21185 12.5 12.0004 12.5C13.6638 12.5 15.2115 12.9805 16.5081 13.8263Z" fill="white"/>
<path d="M19 15.25C19 14.8358 18.6642 14.5 18.25 14.5C17.8358 14.5 17.5 14.8358 17.5 15.25V17.5H15.25C14.8358 17.5 14.5 17.8358 14.5 18.25C14.5 18.6642 14.8358 19 15.25 19H17.5V21.25C17.5 21.6642 17.8358 22 18.25 22C18.6642 22 19 21.6642 19 21.25V19H21.25C21.6642 19 22 18.6642 22 18.25C22 17.8358 21.6642 17.5 21.25 17.5H19V15.25Z" fill="white"/>
</svg>
