<svg width="40" height="40" viewBox="0 0 40 40" fill="none" xmlns="http://www.w3.org/2000/svg">
<rect width="40" height="40" rx="20" fill="#141414"/>
<path d="M19.7916 13.125C19.7916 12.8802 19.9345 12.6579 20.1573 12.5564C20.38 12.4548 20.6416 12.4926 20.8264 12.6531L28.7431 19.5281C28.8798 19.6468 28.9583 19.819 28.9583 20C28.9583 20.1811 28.8798 20.3532 28.7431 20.4719L20.8264 27.3469C20.6416 27.5074 20.38 27.5452 20.1573 27.4437C19.9345 27.3421 19.7916 27.1198 19.7916 26.875V23.5458C16.672 23.5875 15.0396 23.9473 14.0575 24.5024C13.0618 25.0653 12.6645 25.8598 12.0372 27.1147L12.0173 27.1545C11.8876 27.4137 11.5968 27.5499 11.3147 27.4833C11.0326 27.4167 10.8333 27.1648 10.8333 26.875C10.8333 23.3205 11.2932 20.6624 12.8089 18.9136C14.2561 17.2437 16.5359 16.5426 19.7916 16.4656V13.125Z" fill="#656565"/>
</svg>
