<svg width="112" height="26" viewBox="0 0 112 26" fill="none" xmlns="http://www.w3.org/2000/svg">
<g opacity="0.2">
<path fill-rule="evenodd" clip-rule="evenodd" d="M61.8742 5.90646C63.3741 5.90647 64.6048 6.28286 65.5663 7.03555C66.5471 7.76902 67.2682 8.74403 67.7298 9.96004C68.2105 11.176 68.4509 12.5077 68.4509 13.9552C68.4509 15.4028 68.2105 16.7353 67.7298 17.9513C67.2682 19.1671 66.547 20.1513 65.5663 20.904C64.6048 21.6375 63.3741 22.0039 61.8742 22.0039C60.8934 22.0039 59.9991 21.7923 59.1914 21.3677C58.3838 20.9238 57.7684 20.3251 57.3454 19.5723V26H54.288V6.25424H57.1726L57.2299 8.59911C57.6722 7.71123 58.2974 7.04501 59.105 6.60107C59.9319 6.13792 60.855 5.90646 61.8742 5.90646ZM61.3258 8.56989C60.0953 8.56996 59.1245 9.0239 58.413 9.93083C57.7015 10.838 57.3454 12.1795 57.3454 13.9552C57.3454 15.731 57.7015 17.0724 58.413 17.9795C59.1245 18.8867 60.0951 19.3404 61.3258 19.3405C62.5565 19.3405 63.5181 18.8677 64.2104 17.9221C64.9219 16.9763 65.278 15.6538 65.278 13.9552C65.278 12.2568 64.9219 10.935 64.2104 9.98926C63.5181 9.04347 62.5566 8.56989 61.3258 8.56989Z" fill="white"/>
<path d="M20.8529 0.375086C21.0824 0.0830057 21.5091 -0.0649836 21.8567 0.0273134L23.4567 0.452369C23.8042 0.544856 23.968 0.850079 23.8417 1.16959L21.1853 7.8866L29.3077 5.58508C29.6942 5.47558 30.068 5.60445 30.1866 5.88856L30.7321 7.19577C30.8507 7.47987 30.6778 7.83417 30.3265 8.02797L22.944 12.0995L29.6082 14.9863C29.925 15.1236 30.0264 15.4537 29.8467 15.7629L29.0185 17.186C28.8385 17.4953 28.4312 17.6914 28.0607 17.6459L20.2754 16.6884L21.5759 23.0708C21.6378 23.3745 21.408 23.7129 21.0351 23.8662L19.3186 24.5712C18.9456 24.7245 18.5419 24.6474 18.3692 24.3893L14.7419 18.9626L9.9182 25.1037C9.68865 25.3959 9.26111 25.5439 8.91347 25.4515L7.31435 25.0255C6.9668 24.9331 6.80318 24.6287 6.92936 24.3092L9.58486 17.5913L1.46155 19.8937C1.07517 20.003 0.701169 19.8733 0.582639 19.5893L0.0370781 18.2821C-0.0812351 17.998 0.09149 17.6446 0.442727 17.4508L7.82611 13.3775L1.16294 10.4925C0.845854 10.3552 0.744479 10.0243 0.924436 9.715L1.7517 8.29186C1.93159 7.98266 2.33911 7.78757 2.70948 7.83288L10.4957 8.78949L9.19423 2.408C9.13231 2.10428 9.36295 1.76592 9.73604 1.61255L11.4525 0.906641C11.8256 0.753388 12.2293 0.831307 12.4019 1.08948L16.0283 6.5153L20.8529 0.375086Z" fill="white"/>
<path d="M44.0679 0.637094C45.6254 0.637138 46.9621 0.927044 48.0774 1.50605C49.1926 2.08509 50.0674 2.87656 50.7019 3.88015C51.3364 4.88373 51.7312 6.03184 51.8851 7.32489L48.6831 7.49924C48.5292 6.32202 48.0581 5.35669 47.2699 4.60397C46.5006 3.85119 45.4135 3.47488 44.0096 3.47488C42.8177 3.47491 41.8755 3.7542 41.1832 4.31368C40.5103 4.85404 40.173 5.57817 40.1729 6.48514C40.1729 7.08332 40.3076 7.57601 40.5766 7.962C40.8651 8.34804 41.3656 8.69554 42.0772 9.00437C42.8079 9.2939 43.8368 9.59279 45.1637 9.90161C46.9329 10.3069 48.3366 10.8093 49.3751 11.4077C50.4136 11.9867 51.1545 12.6718 51.5968 13.4632C52.0582 14.2545 52.2888 15.1522 52.2888 16.1559C52.2888 17.3718 51.9712 18.4333 51.3367 19.3405C50.7213 20.2284 49.8557 20.9135 48.7403 21.396C47.625 21.8785 46.327 22.1198 44.8463 22.1198C43.2117 22.1198 41.7882 21.821 40.5766 21.2226C39.3845 20.6243 38.4425 19.7941 37.7502 18.7326C37.058 17.671 36.6543 16.4358 36.5389 15.0268L39.7409 14.8241C39.9332 16.2523 40.4518 17.3527 41.2978 18.1247C42.1631 18.8967 43.3653 19.2829 44.9036 19.283C46.2305 19.283 47.2602 19.0318 47.991 18.53C48.7216 18.0281 49.0868 17.2942 49.0868 16.3293C49.0868 15.7503 48.9424 15.2388 48.6539 14.7949C48.3847 14.3317 47.8554 13.9166 47.067 13.5499C46.2979 13.164 45.1636 12.7875 43.6641 12.4208C42.0297 12.0349 40.7217 11.6008 39.7409 11.1183C38.7602 10.6165 38.0479 10.0079 37.6056 9.29371C37.1827 8.56031 36.9709 7.66249 36.9709 6.60107C36.9709 5.4238 37.2499 4.39095 37.8075 3.50316C38.3844 2.596 39.2025 1.89197 40.2602 1.39013C41.3178 0.888359 42.5872 0.637094 44.0679 0.637094Z" fill="white"/>
<path fill-rule="evenodd" clip-rule="evenodd" d="M76.0484 5.90646C78.1253 5.90646 79.7022 6.46644 80.7791 7.58595C81.8752 8.68616 82.4233 10.24 82.4233 12.2474V18.2406C82.4233 18.607 82.4809 18.8675 82.5961 19.0219C82.7306 19.157 82.9425 19.2245 83.2308 19.2246H83.7792V21.6571C83.51 21.715 83.135 21.7438 82.6543 21.7438C81.7889 21.7438 81.0964 21.5601 80.5772 21.1934C80.0581 20.8267 79.7405 20.19 79.6251 19.283C79.2404 20.0935 78.5774 20.75 77.6353 21.2518C76.6931 21.7536 75.6255 22.0039 74.4333 22.0039C72.8372 22.0039 71.5581 21.6375 70.5965 20.904C69.6542 20.1706 69.1834 19.138 69.1834 17.8061C69.1834 16.4937 69.5772 15.461 70.3656 14.7082C71.1732 13.9555 72.4138 13.4153 74.0868 13.0872L79.3659 12.0731C79.3658 9.69922 78.2598 8.5124 76.0484 8.5124C75.0676 8.51241 74.298 8.73385 73.7403 9.17779C73.1827 9.62172 72.7988 10.2592 72.5872 11.0891L69.4425 10.8865C69.731 9.34241 70.4423 8.12605 71.5769 7.23818C72.7307 6.3503 74.2215 5.90647 76.0484 5.90646ZM74.8653 15.2586C73.9425 15.4324 73.2892 15.7124 72.9046 16.0984C72.5392 16.4651 72.3562 16.9377 72.3562 17.5168C72.3563 18.1729 72.5771 18.6845 73.0192 19.0511C73.4807 19.3986 74.1158 19.5723 74.9235 19.5723C76.3081 19.5723 77.3943 19.1762 78.1828 18.3848C78.9711 17.5935 79.3658 16.5903 79.3659 15.3746V14.3897L74.8653 15.2586Z" fill="white"/>
<path d="M90.8349 5.90646C92.7002 5.90648 94.2484 6.39894 95.4792 7.38332C96.7098 8.34839 97.4499 9.71875 97.6999 11.4944L94.4979 11.6678C94.344 10.6643 93.9404 9.9015 93.2866 9.38042C92.6328 8.84014 91.8155 8.56991 90.8349 8.56989C89.5464 8.56989 88.5364 9.05248 87.8057 10.0175C87.0941 10.9633 86.739 12.276 86.7389 13.9552C86.7389 15.6537 87.0942 16.9763 87.8057 17.9221C88.5364 18.8679 89.5464 19.3405 90.8349 19.3405C91.8156 19.3405 92.6328 19.0704 93.2866 18.53C93.9405 17.9702 94.3441 17.1302 94.4979 16.0107L97.6999 16.1851C97.4499 17.9607 96.7099 19.3798 95.4792 20.4413C94.2677 21.4835 92.7194 22.0039 90.8349 22.0039C89.3733 22.0039 88.0943 21.6762 86.9981 21.02C85.902 20.3444 85.0561 19.4081 84.46 18.2114C83.8638 16.9954 83.5651 15.5765 83.5651 13.9552C83.5651 12.3339 83.8639 10.9249 84.46 9.72819C85.0561 8.51227 85.902 7.57585 86.9981 6.91962C88.0943 6.24407 89.3734 5.90646 90.8349 5.90646Z" fill="white"/>
<path fill-rule="evenodd" clip-rule="evenodd" d="M104.99 5.90646C106.375 5.90653 107.596 6.23515 108.653 6.89135C109.711 7.52831 110.528 8.45476 111.105 9.6707C111.701 10.8867 112 12.3534 112 14.0711V14.8534H100.98C101.057 16.3587 101.452 17.4879 102.163 18.2406C102.894 18.9932 103.874 19.3696 105.105 19.3697C106.009 19.3697 106.75 19.1671 107.327 18.7618C107.923 18.3372 108.346 17.7582 108.596 17.0248L111.769 17.2275C111.365 18.675 110.567 19.8329 109.375 20.7014C108.202 21.5699 106.769 22.0039 105.077 22.0039C103.577 22.0039 102.279 21.6761 101.183 21.02C100.106 20.3444 99.2689 19.4081 98.6727 18.2114C98.0958 16.9954 97.807 15.5765 97.807 13.9552C97.807 12.3339 98.0958 10.9249 98.6727 9.72819C99.2689 8.51225 100.106 7.57586 101.183 6.91962C102.26 6.24425 103.529 5.90646 104.99 5.90646ZM104.99 8.5124C103.894 8.5124 102.99 8.85991 102.279 9.55478C101.586 10.2303 101.153 11.2243 100.98 12.5368H108.769C108.673 11.1663 108.278 10.1526 107.586 9.49635C106.894 8.84039 106.028 8.51249 104.99 8.5124Z" fill="white"/>
</g>
</svg>
