<svg width="24" height="24" viewBox="0 0 24 24" fill="none" xmlns="http://www.w3.org/2000/svg">
<path fill-rule="evenodd" clip-rule="evenodd" d="M12.9665 2.43976C12.457 1.85341 11.5466 1.85341 11.0371 2.43976L9.19512 4.55979L6.42133 4.11978C5.65416 3.99808 4.95674 4.58328 4.94338 5.35993L4.89504 8.16799L2.48735 9.61388C1.82144 10.0138 1.66336 10.9104 2.15233 11.5139L3.92029 13.6961L3.0053 16.3513C2.75223 17.0857 3.20744 17.8741 3.96996 18.0222L6.72697 18.5574L7.7328 21.1796C8.011 21.9048 8.8665 22.2162 9.54578 21.8394L12.0018 20.4773L14.4578 21.8394C15.1371 22.2162 15.9926 21.9048 16.2708 21.1796L17.2766 18.5574L20.0336 18.0222C20.7962 17.8741 21.2514 17.0857 20.9983 16.3513L20.0833 13.6961L21.8513 11.5139C22.3402 10.9104 22.1821 10.0138 21.5162 9.61388L19.1086 8.16799L19.0602 5.35993C19.0469 4.58328 18.3494 3.99808 17.5823 4.11978L14.8085 4.55979L12.9665 2.43976ZM15.0321 11.2803C15.325 10.9874 15.325 10.5126 15.0321 10.2197C14.7392 9.92678 14.2644 9.92678 13.9715 10.2197L11.0018 13.1893L10.0321 12.2197C9.73923 11.9268 9.26436 11.9268 8.97147 12.2197C8.67857 12.5126 8.67857 12.9874 8.97147 13.2803L10.4715 14.7803C10.6121 14.921 10.8029 15 11.0018 15C11.2007 15 11.3915 14.921 11.5321 14.7803L15.0321 11.2803Z" fill="#5CDB2A"/>
</svg>
