<svg width="20" height="20" viewBox="0 0 20 20" fill="none" xmlns="http://www.w3.org/2000/svg">
<path fill-rule="evenodd" clip-rule="evenodd" d="M0 10C0 4.47715 4.47715 0 10 0C15.5228 0 20 4.47715 20 10C20 15.5228 15.5228 20 10 20C4.47715 20 0 15.5228 0 10ZM6.21967 8.46967L9.46967 5.21967C9.76256 4.92678 10.2374 4.92678 10.5303 5.21967L13.7803 8.46967C14.0732 8.76256 14.0732 9.23744 13.7803 9.53033C13.4874 9.82322 13.0126 9.82322 12.7197 9.53033L10.75 7.56066V14.25C10.75 14.6642 10.4142 15 10 15C9.58579 15 9.25 14.6642 9.25 14.25V7.56066L7.28033 9.53033C6.98744 9.82322 6.51256 9.82322 6.21967 9.53033C5.92678 9.23744 5.92678 8.76256 6.21967 8.46967Z" fill="white"/>
</svg>
